<svg xmlns="http://www.w3.org/2000/svg" width="78.602" height="105.292" viewBox="0 0 78.602 105.292">
  <g id="Qualité_des_cours_d_eau" data-name="Qualité des cours d&apos;eau" transform="translate(-197.991 -324.718)">
    <path id="Tracé_107" data-name="Tracé 107" d="M198.991,348.994v41.153a2.662,2.662,0,0,0,1.329,2.305l35.642,20.577a2.662,2.662,0,0,0,2.661,0l35.64-20.577a2.66,2.66,0,0,0,1.33-2.305V348.994a2.659,2.659,0,0,0-1.33-2.3l-35.64-20.578a2.662,2.662,0,0,0-2.661,0L200.32,346.69A2.661,2.661,0,0,0,198.991,348.994Z" fill="#fff" stroke="#21b7ef" stroke-width="2"/>
    <path id="Tracé_108" data-name="Tracé 108" d="M232.542,354.186h-8.66l-5.648,13.768a2.849,2.849,0,0,0,1.541,3.712h15.692a2.847,2.847,0,0,0,2.634-3.929Z" transform="translate(11.246 12.426)" fill="#fff" opacity="0.5"/>
    <path id="Tracé_109" data-name="Tracé 109" d="M239.041,368.434l-7.789-18.983a8.676,8.676,0,0,1-.651-3.3V341.13a2.011,2.011,0,0,1,.593-1.43,2.454,2.454,0,0,0,.723-1.744v-.711a.72.72,0,0,0-.719-.719H221.153a.719.719,0,0,0-.719.719v.711a2.45,2.45,0,0,0,.723,1.744,2.011,2.011,0,0,1,.593,1.43v5.018a8.676,8.676,0,0,1-.651,3.3l-2.141,5.217,0,.005-5.646,13.761a3.567,3.567,0,0,0,3.3,4.921h19.131a3.567,3.567,0,0,0,3.3-4.921ZM222.429,350a10.073,10.073,0,0,0,.76-3.848V341.13a3.443,3.443,0,0,0-1.014-2.447,1.019,1.019,0,0,1-.3-.719h8.605a1.021,1.021,0,0,1-.3.719,3.443,3.443,0,0,0-1.014,2.447v5.018a10.1,10.1,0,0,0,.759,3.848l1.737,4.233H220.692Zm15.079,20.978a2.1,2.1,0,0,1-1.767.943H216.61a2.131,2.131,0,0,1-2.108-2.437h1.185a.719.719,0,1,0,0-1.439h-.66l.826-2.014h1.213a.719.719,0,0,0,0-1.439h-.622l.826-2.014h1.248a.719.719,0,0,0,0-1.439h-.658l.827-2.015h1.282a.719.719,0,0,0,0-1.438h-.692l.827-2.015h12.146l5.461,13.312A2.1,2.1,0,0,1,237.508,370.975Z" transform="translate(10.972 11.456)" fill="#21b7ef" stroke="#21b7ef" stroke-miterlimit="10" stroke-width="1"/>
    <path id="Tracé_110" data-name="Tracé 110" d="M234.392,366.839a.72.72,0,1,0-1.332.545l0,.008a.719.719,0,1,0,1.331-.544Z" transform="translate(12.069 13.096)" fill="#cfedf9"/>
    <path id="Tracé_111" data-name="Tracé 111" d="M233.562,364.817l-2.576-6.28a.72.72,0,1,0-1.331.546l2.576,6.279a.719.719,0,0,0,.667.446.711.711,0,0,0,.272-.054A.719.719,0,0,0,233.562,364.817Z" transform="translate(11.882 12.641)" fill="#cfedf9"/>
    <g id="Groupe_146" data-name="Groupe 146" transform="translate(221.329 396.623)">
      <circle id="Ellipse_41" data-name="Ellipse 41" cx="16.193" cy="16.193" r="16.193" fill="#fff" stroke="#21b7ef" stroke-miterlimit="10" stroke-width="2"/>
      <g id="Groupe_145" data-name="Groupe 145" transform="translate(10.344 6.153)">
        <path id="Tracé_112" data-name="Tracé 112" d="M227.185,379.452l-4.723,8.236a5.85,5.85,0,1,0,10.149,0l-4.723-8.236A.406.406,0,0,0,227.185,379.452Z" transform="translate(-221.689 -379.248)" fill="#21b7ef"/>
      </g>
    </g>
  </g>
</svg>
